<?xml version='1.0' encoding='utf-8'?>
<svg xmlns="http://www.w3.org/2000/svg" width="297mm" height="420mm" version="1.1" style="shape-rendering:geometricPrecision; text-rendering:geometricPrecision; image-rendering:optimizeQuality; fill-rule:evenodd; clip-rule:evenodd" viewBox="0 0 29700 42000"> <defs> <style type="text/css">  .fil6 {fill:#345717} .fil2 {fill:#3B6620} .fil0 {fill:#599029} .fil4 {fill:#8BBC4E} .fil3 {fill:#994517} .fil1 {fill:#A55325} .fil5 {fill:#BED573}  </style> </defs> <g id="Vrstva_x0020_1"> <metadata id="CorelCorpID_0Corel-Layer"/> <g id="_682432672"> <path class="fil0" d="M7678 3808c593,23 999,-65 942,-606 -82,-380 -464,-480 -1035,-345 -869,263 -1062,739 -1144,1250 306,-183 700,-305 1237,-299z"/> <g> <path class="fil1" d="M9614 3051c37,-292 327,-528 618,-763 15,29 30,57 45,86 -299,226 -543,467 -607,761 481,727 890,1451 1247,2174 -11,-299 109,-547 348,-747 25,23 49,45 74,67 -257,235 -352,520 -345,836 223,460 427,919 615,1378 -47,19 -95,39 -143,58 -184,-469 -385,-940 -608,-1415 -324,-101 -626,-165 -897,-171 1,-28 1,-57 2,-86 279,-8 563,51 852,166 -345,-724 -744,-1455 -1221,-2197 -421,-80 -763,-45 -1055,63 -6,-32 -11,-63 -17,-95 323,-113 656,-155 1009,-65 -229,-351 -474,-704 -741,-1059 20,-19 40,-37 59,-55 274,355 528,710 765,1064z"/> <path class="fil0" d="M8733 870c381,477 385,952 122,1191 -341,234 -950,-75 -1216,-724 -135,-336 -141,-718 -152,-1077 451,70 911,231 1246,610z"/> <path class="fil0" d="M9117 5768c593,23 999,-65 943,-606 -83,-381 -465,-480 -1036,-345 -869,263 -1062,739 -1144,1249 306,-182 700,-305 1237,-298z"/> <path class="fil0" d="M11227 2270c-459,377 -836,552 -1118,87 -163,-353 80,-663 616,-901 852,-316 1293,-54 1667,304 -354,39 -742,180 -1165,510z"/> <path class="fil0" d="M12255 4426c-459,378 -836,553 -1118,88 -163,-353 80,-663 616,-901 852,-317 1293,-54 1667,303 -354,40 -742,180 -1165,510z"/> <path class="fil1" d="M8459 3277c-3,-37 -6,-74 -8,-111 -108,5 -216,10 -324,14 -80,-106 -159,-213 -238,-319 -24,7 -48,15 -72,23 70,106 139,212 209,317 -122,15 -244,30 -366,45 -68,-89 -136,-177 -204,-265 -22,11 -43,22 -64,33 57,86 113,171 169,257 -137,36 -274,71 -411,107 7,29 13,58 19,86 135,-39 270,-78 404,-117 -17,101 -35,202 -52,303 34,5 68,9 103,14 13,-107 26,-214 40,-322 120,-14 240,-29 360,-44 -33,121 -65,241 -97,362 33,6 67,11 101,17 26,-123 52,-246 78,-368 117,-11 235,-21 353,-32z"/> <path class="fil1" d="M9828 5313c-2,-37 -5,-74 -8,-111 -108,4 -216,9 -324,14 -79,-106 -158,-213 -238,-320 -24,8 -47,16 -71,24 69,105 139,211 208,317 -122,15 -244,30 -366,44 -68,-88 -136,-176 -204,-265 -21,12 -42,23 -63,34 56,86 112,171 168,257 -137,35 -273,71 -410,107 6,29 12,58 19,86 134,-39 269,-78 404,-118 -18,101 -35,202 -53,303 34,5 69,10 103,15 13,-107 27,-214 40,-322 120,-14 240,-29 360,-44 -32,121 -65,241 -97,362 34,6 67,11 101,17 26,-123 52,-246 78,-368 118,-11 236,-21 353,-32z"/> <path class="fil1" d="M10283 2319c-20,-31 -40,-62 -60,-94 89,-61 178,-122 267,-184 -2,-133 -3,-265 -4,-398 23,-8 47,-17 71,-25 8,126 17,253 26,379 106,-62 212,-124 318,-186 1,-112 2,-223 2,-335 24,-4 47,-7 71,-11 7,102 14,204 21,306 131,-54 261,-108 392,-163 12,27 24,54 37,81 -131,50 -262,100 -393,150 75,70 150,140 225,209 -24,25 -49,50 -73,75 -76,-78 -151,-155 -227,-233 -104,61 -209,122 -313,183 99,76 197,153 296,229 -24,25 -47,50 -70,75 -95,-82 -190,-164 -285,-246 -100,63 -200,125 -301,188z"/> <path class="fil1" d="M11385 4582c-23,-30 -45,-59 -67,-89 84,-68 169,-135 253,-203 -10,-132 -21,-264 -31,-397 23,-10 46,-19 69,-29 17,125 35,250 52,376 102,-69 203,-139 305,-208 -7,-111 -14,-223 -21,-334 23,-5 46,-11 69,-16 14,101 29,203 43,304 126,-63 253,-126 379,-190 14,26 28,52 43,78 -128,59 -255,118 -382,177 80,65 159,129 239,194 -22,26 -45,52 -68,79 -80,-72 -161,-144 -242,-216 -100,67 -200,135 -300,203 104,70 208,139 312,209 -22,26 -44,53 -65,79 -101,-75 -201,-151 -301,-226 -96,70 -192,140 -287,209z"/> <polygon class="fil1" points="8585,1593 8804,1934 8747,1976 8482,1667 8051,1778 8009,1711 8449,1595 8192,1292 7874,1349 7817,1267 8131,1191 7918,930 7681,947 7651,869 7860,844 7708,644 7782,608 7925,804 8051,642 8101,693 7990,888 8173,1113 8329,897 8400,949 8263,1199 8518,1507 8665,1206 8756,1284 "/> </g> </g> <g id="_682431520"> <path class="fil1" d="M5278 -16866c60,-469 527,-848 996,-1227 23,46 47,92 71,139 -480,363 -873,751 -977,1224 774,1170 1432,2335 2008,3498 -19,-481 174,-879 560,-1202 39,36 79,73 118,109 -413,377 -567,835 -555,1343 359,740 687,1479 990,2218 -76,31 -153,63 -230,94 -297,-755 -620,-1514 -979,-2278 -521,-162 -1008,-264 -1443,-274 1,-46 2,-92 3,-139 449,-13 906,83 1370,267 -554,-1164 -1196,-2340 -1964,-3535 -677,-128 -1227,-72 -1697,101 -9,-50 -18,-101 -27,-152 519,-182 1055,-250 1623,-105 -368,-564 -763,-1132 -1192,-1704 32,-30 63,-59 95,-88 441,571 849,1142 1230,1711z"/> <path class="fil2" d="M3861 -20375c613,769 620,1532 196,1916 -548,378 -1529,-119 -1956,-1164 -217,-541 -226,-1155 -244,-1733 725,114 1466,371 2004,981z"/> <path class="fil2" d="M2163 -15647c955,37 1608,-104 1517,-975 -133,-612 -747,-772 -1666,-555 -1399,423 -1709,1189 -1841,2010 492,-293 1126,-490 1990,-480z"/> <path class="fil2" d="M4479 -12494c955,38 1608,-104 1517,-975 -134,-612 -747,-772 -1666,-555 -1399,423 -1710,1189 -1841,2011 492,-294 1126,-491 1990,-481z"/> <path class="fil2" d="M7873 -18122c-737,607 -1343,889 -1797,140 -264,-568 128,-1066 991,-1449 1370,-509 2081,-87 2682,488 -570,63 -1194,290 -1876,821z"/> <path class="fil2" d="M9527 -14652c-737,607 -1343,889 -1797,140 -264,-568 128,-1066 991,-1449 1370,-509 2081,-87 2682,488 -569,63 -1194,290 -1876,821z"/> <path class="fil1" d="M3420 -16501c-4,-60 -9,-120 -13,-180 -174,8 -348,16 -521,24 -128,-171 -255,-343 -383,-514 -38,12 -77,24 -115,37 112,170 223,341 335,511 -196,24 -393,47 -589,71 -109,-142 -219,-284 -328,-426 -34,18 -68,36 -102,54 90,137 181,275 271,413 -220,57 -440,115 -660,172 10,47 20,93 30,139 217,-63 434,-126 650,-189 -28,162 -56,325 -84,487 55,8 110,16 165,24 22,-173 43,-346 65,-518 193,-24 386,-48 579,-71 -52,194 -104,388 -156,582 54,9 108,18 162,27 42,-197 84,-395 126,-592 189,-17 379,-34 568,-51z"/> <path class="fil1" d="M5624 -13225c-5,-60 -9,-120 -14,-180 -174,8 -347,16 -521,24 -128,-172 -255,-343 -383,-515 -38,13 -76,25 -115,38 112,170 224,340 335,511 -196,23 -392,47 -589,71 -109,-142 -219,-285 -328,-427 -34,18 -68,36 -102,54 91,138 181,276 271,413 -220,58 -440,115 -660,173 10,46 21,93 31,139 216,-63 433,-127 650,-190 -29,163 -57,325 -85,488 55,8 111,16 166,23 21,-172 43,-345 64,-518 193,-23 386,-47 579,-71 -52,195 -104,389 -156,583 54,9 109,18 163,27 42,-198 83,-395 125,-593 190,-17 379,-34 569,-50z"/> <path class="fil1" d="M6356 -18042c-33,-51 -65,-101 -98,-151 143,-99 286,-198 430,-297 -3,-214 -5,-427 -7,-641 38,-13 76,-27 114,-40 14,203 28,407 42,610 171,-100 342,-200 513,-300 1,-179 2,-359 3,-538 38,-6 76,-12 114,-18 11,164 23,328 34,492 210,-87 420,-174 630,-261 20,43 40,86 60,129 -211,81 -422,161 -633,242 121,112 242,225 363,337 -40,40 -79,79 -118,119 -122,-124 -243,-249 -365,-374 -168,98 -336,196 -504,294 159,123 318,246 476,369 -37,40 -75,80 -113,120 -152,-132 -305,-264 -458,-396 -161,101 -322,202 -483,304z"/> <path class="fil1" d="M8128 -14401c-36,-48 -72,-96 -108,-144 136,-109 272,-217 408,-326 -17,-213 -34,-426 -51,-639 37,-16 74,-32 111,-48 28,202 56,404 84,606 164,-112 327,-223 491,-335 -12,-179 -23,-358 -34,-537 37,-9 74,-17 112,-26 23,163 45,326 68,489 203,-101 407,-203 610,-305 23,42 46,83 69,125 -205,95 -409,190 -614,285 128,104 256,208 385,311 -37,43 -73,85 -110,127 -129,-115 -259,-231 -389,-347 -161,109 -322,218 -482,328 166,112 333,223 500,335 -35,43 -69,85 -104,128 -162,-121 -323,-243 -485,-364 -153,112 -307,225 -461,337z"/> <polygon class="fil1" points="3624,-19211 3976,-18663 3884,-18595 3458,-19092 2764,-18913 2696,-19021 3404,-19208 2991,-19695 2479,-19604 2388,-19736 2892,-19857 2551,-20277 2168,-20250 2121,-20375 2456,-20416 2212,-20738 2331,-20795 2561,-20480 2764,-20741 2845,-20660 2666,-20345 2960,-19983 3211,-20331 3326,-20247 3104,-19844 3515,-19350 3752,-19834 3898,-19709 "/> </g> <g id="_682430776"> <path class="fil3" d="M34466 -14109c127,-15 255,-30 383,-44 242,1661 131,3261 -295,4804 -354,0 -707,0 -1061,0 797,-1446 1237,-2999 973,-4760z"/> <path class="fil0" d="M33331 -18251c-169,-1259 126,-2395 1238,-3242 696,570 1292,1304 1385,2358 54,608 -453,1664 -118,1828 391,190 1163,-637 1798,-796 981,-247 1868,-99 2594,118 -235,944 -960,1664 -1916,2122 -859,413 -2570,260 -2623,604 -76,490 1203,65 1798,221 1414,371 1933,1379 2122,2594 -833,383 -1931,330 -2977,-530 -697,-574 -1245,-993 -1975,-1061 -906,79 -1656,828 -2564,1385 -926,568 -1927,382 -2801,-236 387,-825 1000,-1545 2005,-1857 618,-192 1852,-113 1916,-324 54,-561 -1072,-391 -2241,-708 -1163,-315 -1610,-1406 -1768,-2446 874,-239 1781,-483 2623,-59 550,277 1311,1214 1533,1032 250,-206 15,-671 -29,-1003z"/> </g> <g id="_682430512"> <path class="fil3" d="M31955 -4355c90,-10 179,-20 269,-31 170,1167 92,2290 -207,3374 -248,0 -497,0 -745,0 560,-1016 868,-2106 683,-3343z"/> <path class="fil2" d="M31158 -7263c-118,-884 89,-1682 869,-2276 489,400 908,915 973,1655 38,427 -318,1169 -83,1284 275,133 817,-447 1263,-559 689,-173 1311,-70 1821,83 -165,663 -674,1168 -1345,1490 -604,289 -1804,183 -1842,424 -54,344 845,46 1263,155 992,261 1357,968 1490,1822 -586,269 -1357,231 -2091,-373 -489,-402 -874,-697 -1386,-745 -637,56 -1163,581 -1801,973 -650,399 -1353,268 -1966,-166 271,-579 701,-1085 1407,-1304 434,-135 1300,-79 1345,-227 38,-394 -752,-275 -1573,-497 -816,-222 -1130,-987 -1242,-1718 614,-168 1251,-339 1843,-41 386,194 920,852 1076,724 175,-144 10,-471 -21,-704z"/> </g> <g id="_682429960"> <path class="fil4" d="M28013 5264c-207,204 -366,239 -579,182 -49,242 -125,514 -306,613 -343,144 -864,33 -1023,-379 -431,-1134 -966,-2340 -2029,-3192 1761,-137 2980,543 3976,1871 216,323 203,624 -39,905z"/> <path class="fil4" d="M28843 2913c260,209 442,114 721,171 138,351 473,573 802,619 394,66 707,-56 923,-409 402,-664 535,-1980 353,-4065 -2197,635 -3396,1470 -3332,2537 38,647 172,836 533,1147z"/> <path class="fil3" d="M31042 19c-103,164 -202,329 -297,496 167,16 299,120 431,226 -153,-86 -306,-167 -458,-179 -10,20 -7,12 -20,35 -103,183 -201,367 -294,553 188,-4 374,97 560,192 -197,-66 -394,-134 -596,-121 -110,223 -214,447 -311,673 243,46 474,152 689,324 -239,-118 -482,-203 -732,-221 -72,171 -140,343 -204,517 321,64 573,265 828,462 -269,-161 -535,-329 -863,-366 -782,2162 -989,4486 -694,6929 -83,0 -165,0 -248,0 -170,-1528 -701,-3059 -1682,-4443 -285,-10 -554,21 -802,102 204,-131 449,-197 741,-187 -104,-144 -213,-285 -327,-425 -254,-38 -459,44 -681,129 166,-121 364,-235 611,-214 -91,-109 -186,-218 -283,-325 -190,18 -362,67 -519,144 119,-112 274,-180 471,-196 -136,-147 -277,-292 -425,-434 -172,3 -255,66 -326,137 32,-96 102,-173 239,-219 -251,-236 -520,-465 -806,-685 245,133 488,297 725,489 108,-114 251,-170 354,-158 -94,34 -185,83 -259,236 127,107 253,221 376,342 112,-101 269,-160 447,-200 -161,62 -297,143 -397,250 142,142 281,293 416,452 151,-174 368,-285 626,-356 -235,127 -437,268 -534,453 49,58 315,417 361,480 110,-173 288,-288 491,-383 -172,147 -313,311 -410,498 675,961 1235,2118 1594,3320 -244,-2061 43,-3990 805,-5808 -133,-186 -290,-354 -474,-500 201,102 375,234 515,404 97,-225 201,-449 312,-670 -209,-242 -423,-428 -644,-531 233,57 462,215 689,441 106,-207 218,-412 336,-616 -174,-196 -339,-344 -490,-416 166,27 342,133 532,344 83,-142 169,-283 258,-423 -105,-100 -254,-164 -407,-225 159,35 318,71 435,182 109,-171 223,-340 341,-509z"/> </g> <g id="_682429744"> <path class="fil0" d="M16788 -2993c-205,203 -362,237 -573,181 -48,239 -123,508 -303,605 -339,143 -854,33 -1011,-374 -426,-1121 -954,-2313 -2005,-3155 1740,-136 2946,537 3930,1850 213,318 200,616 -38,893z"/> <path class="fil0" d="M17607 -5316c258,207 437,113 713,170 137,346 468,565 793,611 389,65 699,-56 913,-404 396,-656 528,-1957 348,-4018 -2171,628 -3356,1453 -3293,2507 38,640 170,827 526,1134z"/> <path class="fil3" d="M19781 -8176c-102,162 -200,325 -294,490 165,16 296,119 426,223 -151,-85 -302,-164 -453,-176 -10,19 -7,11 -19,34 -101,180 -198,363 -291,546 186,-4 370,97 554,190 -195,-65 -390,-132 -589,-119 -109,220 -211,442 -307,665 240,46 468,150 681,320 -237,-116 -477,-200 -724,-219 -71,170 -138,340 -202,512 317,64 567,262 819,456 -267,-159 -529,-325 -853,-361 -773,2136 -978,4434 -687,6848 -81,0 -163,0 -244,0 -169,-1510 -693,-3024 -1663,-4392 -282,-9 -547,21 -793,101 202,-129 444,-194 733,-185 -103,-141 -211,-281 -323,-419 -251,-38 -454,43 -673,127 164,-120 360,-232 604,-211 -91,-108 -184,-216 -281,-322 -187,19 -357,67 -513,142 119,-110 272,-177 467,-193 -135,-145 -275,-288 -421,-429 -170,3 -252,66 -321,136 31,-95 101,-172 235,-217 -248,-233 -513,-459 -796,-677 242,131 482,294 717,483 106,-112 248,-167 349,-156 -92,34 -182,82 -255,233 125,106 249,219 371,339 111,-101 266,-159 442,-199 -159,62 -293,142 -392,248 139,140 277,289 411,447 149,-173 363,-282 619,-352 -233,125 -433,264 -528,447 48,58 311,413 356,475 109,-171 285,-284 485,-379 -170,145 -308,307 -404,493 666,950 1220,2093 1575,3281 -242,-2038 42,-3944 796,-5740 -132,-185 -287,-350 -469,-495 199,101 371,232 509,399 96,-222 198,-443 308,-662 -207,-239 -418,-423 -636,-525 230,57 457,213 681,437 104,-205 215,-408 332,-610 -172,-193 -335,-339 -484,-410 164,26 338,131 525,339 82,-140 168,-279 256,-417 -104,-99 -252,-162 -403,-223 158,35 314,71 430,180 108,-169 220,-336 337,-503z"/> </g> <g id="_682433728"> <path class="fil2" d="M2125 -4340c5644,2589 3050,-6022 4489,-7597 -2815,629 -9108,4483 -4489,7597z"/> <path class="fil5" d="M2067 -4380c-85,1285 47,2562 508,3828 179,0 358,0 537,0 -579,-1078 -886,-2316 -918,-3715 4,-174 16,-345 35,-514 709,165 1361,110 1998,-11 -674,50 -1340,45 -1980,-132 44,-313 112,-616 202,-911 683,161 1292,76 1886,-65 -615,100 -1234,136 -1867,4 102,-318 229,-626 380,-924 522,161 1008,122 1479,1 -489,77 -973,84 -1445,-68 167,-323 362,-635 579,-939 522,233 1101,171 1702,-6 -606,127 -1166,134 -1636,-84 366,-497 793,-969 1266,-1423 -295,245 -569,501 -820,769 -80,-265 -100,-627 -89,-1038 -54,392 -62,770 12,1122 -255,278 -485,570 -690,876 -240,-268 -313,-768 -279,-1422 -74,593 -57,1129 234,1490 -236,361 -437,741 -601,1143 -315,-432 -417,-1049 -448,-1729 -37,648 54,1267 409,1825 -130,331 -235,677 -314,1038 -375,-392 -598,-1076 -755,-1888 103,800 282,1527 732,1996 -52,252 -91,510 -117,777z"/> </g> <g id="_611908648"> <path class="fil5" d="M8544 -2692c5139,2358 2777,-5482 4087,-6916 -2562,573 -8292,4082 -4087,6916z"/> <path class="fil0" d="M8491 -2728c-77,1170 43,2333 463,3486 163,0 326,0 489,0 -527,-982 -807,-2109 -836,-3383 4,-158 15,-314 32,-467 646,149 1239,99 1819,-11 -614,46 -1220,41 -1802,-120 39,-285 101,-561 184,-829 621,146 1176,69 1716,-59 -559,90 -1123,124 -1699,3 92,-289 208,-569 345,-841 476,146 919,111 1348,0 -446,71 -887,78 -1317,-61 153,-294 330,-579 528,-855 475,212 1002,156 1550,-5 -553,115 -1062,122 -1490,-77 333,-452 722,-882 1153,-1295 -269,223 -518,456 -747,700 -73,-242 -91,-572 -81,-945 -49,357 -57,700 10,1021 -231,254 -441,519 -627,797 -219,-243 -286,-699 -254,-1294 -67,540 -52,1027 213,1357 -215,328 -398,674 -548,1040 -286,-393 -379,-955 -407,-1574 -34,590 48,1153 372,1662 -118,301 -214,616 -286,945 -342,-357 -545,-980 -687,-1719 94,728 256,1390 666,1817 -47,229 -83,465 -107,707z"/> </g> <g id="_611907520"> <path class="fil4" d="M24783 -10910c-751,395 -1409,975 -2014,1660 410,309 760,635 843,1035 -399,53 -798,-153 -1197,-409 -387,589 -566,1190 -626,1797 623,297 1221,600 1442,1007 -495,80 -1019,-44 -1551,-218 -179,447 -202,869 -163,1279 598,242 1061,575 1333,1035 -435,61 -871,-62 -1306,-327 65,931 287,1855 1143,2177 655,247 1322,-9 1905,-272 493,284 994,593 1524,456 1388,-360 1860,-1270 1606,-2334 -422,203 -839,324 -1252,408 195,-359 476,-693 1007,-952 91,-517 36,-1053 -163,-1606 -413,242 -830,402 -1252,463 208,-372 582,-762 1116,-1171 -62,-562 -311,-1125 -626,-1687 -302,189 -594,396 -1007,381 67,-262 377,-600 735,-953 -384,-721 -860,-1337 -1497,-1769z"/> <path class="fil0" d="M25746 1430c-1173,-1838 -1210,-3847 -1089,-5906 69,-1164 -223,-2291 -206,-3457 14,-948 316,-2027 330,-2975 -48,934 -479,2054 -526,2988 -61,1186 228,2277 171,3464 -105,2179 -135,4337 898,6151 140,-88 281,-177 422,-265z"/> </g> <g id="_611907640"> <path class="fil2" d="M37186 -4265c-785,414 -1474,1020 -2107,1738 429,323 796,664 883,1082 -418,56 -836,-159 -1253,-427 -405,616 -593,1244 -656,1880 652,310 1279,628 1510,1053 -518,84 -1067,-45 -1623,-227 -188,467 -212,909 -171,1338 626,253 1111,601 1395,1083 -455,63 -911,-64 -1367,-342 69,974 301,1940 1196,2278 685,259 1383,-10 1994,-285 516,298 1040,621 1595,477 1452,-376 1946,-1328 1680,-2442 -442,212 -877,339 -1310,427 204,-376 498,-725 1054,-996 95,-542 38,-1102 -171,-1681 -432,254 -868,421 -1310,484 217,-389 609,-797 1168,-1224 -64,-589 -325,-1178 -655,-1766 -316,198 -621,415 -1054,399 70,-275 394,-628 769,-997 -401,-756 -899,-1400 -1567,-1852z"/> <path class="fil4" d="M38194 8648c-1227,-1923 -1266,-4026 -1139,-6180 72,-1218 -234,-2397 -216,-3617 15,-992 331,-2122 346,-3114 -50,978 -501,2149 -551,3127 -64,1242 238,2383 179,3625 -110,2280 -141,4539 940,6437 147,-93 294,-185 441,-278z"/> </g> <g id="_611907160"> <path class="fil4" d="M14043 -11579c2268,63 2674,-2322 2701,-4950 20,-2013 -778,-3762 -2237,-5136 -1557,1571 -2429,3384 -2528,5387 -126,2543 233,4649 2064,4699z"/> <path class="fil6" d="M14507 -21663c-116,1617 -346,3160 -582,4760 -313,2116 102,3546 66,5109 -32,1376 -730,2403 -1377,3322 128,124 256,247 384,371 570,-1096 1280,-2225 1284,-3653 4,-1585 -361,-3173 -80,-5136 232,-1612 455,-3163 305,-4773z"/> </g> <g id="_611906800"> <path class="fil2" d="M15062 7245c1786,49 2106,-1829 2127,-3899 15,-1585 -613,-2963 -1762,-4045 -1226,1237 -1913,2666 -1991,4243 -100,2003 183,3661 1626,3701z"/> <path class="fil5" d="M15427 -698c-91,1274 -273,2489 -459,3749 -246,1667 81,2793 52,4024 -24,1084 -574,1893 -1084,2617 101,97 202,195 303,292 449,-863 1008,-1752 1011,-2877 3,-1249 -285,-2499 -63,-4045 182,-1270 358,-2491 240,-3760z"/> </g> <g id="_611906128"> <path class="fil3" d="M27140 -11754c-63,969 -62,1864 160,2495 147,-48 294,-96 441,-144 -445,-343 -520,-1272 -525,-2311 -25,-14 -50,-27 -76,-40z"/> <path class="fil4" d="M27189 -11567c-630,-275 -1107,-799 -1262,-1843 97,85 187,131 259,93 -380,-985 -504,-1703 -400,-2184 99,114 192,172 278,177 -142,-738 -321,-1495 -192,-2087 79,56 156,96 230,91 -182,-664 -197,-1484 277,-2761 76,101 145,156 202,147 39,-741 250,-1333 723,-1696 551,297 781,914 915,1627 112,-14 179,-76 231,-151 251,719 196,1658 3,2696 174,-27 252,-156 285,-336 153,702 128,1448 -245,2282 116,-71 199,-173 232,-322 168,733 34,1489 -313,2263 157,-13 254,-102 330,-219 -198,1260 -690,2041 -1553,2223z"/> </g> <g id="_611905648"> <path class="fil3" d="M20430 7381c-68,1053 -68,2024 174,2708 159,-52 319,-104 478,-156 -483,-372 -564,-1381 -570,-2509 -27,-14 -54,-29 -82,-43z"/> <path class="fil2" d="M20484 7584c-685,-298 -1202,-867 -1371,-2001 106,93 203,143 282,102 -413,-1070 -548,-1849 -435,-2371 108,124 208,187 302,192 -154,-801 -349,-1623 -208,-2265 85,61 169,103 249,98 -198,-721 -214,-1611 301,-2997 83,110 157,170 219,160 43,-805 272,-1448 785,-1842 598,322 848,993 994,1767 121,-16 193,-83 250,-164 272,781 213,1799 3,2926 189,-29 274,-169 310,-364 166,761 139,1571 -267,2477 127,-77 217,-188 253,-350 182,796 37,1617 -340,2457 170,-14 275,-111 358,-238 -214,1368 -749,2216 -1685,2413z"/> </g> <g id="_611912584"> <path class="fil4" d="M21681 -15422c1059,-1269 2085,-2458 2917,-2826 82,808 -10,1605 -685,2135 -746,587 -1509,596 -2232,691z"/> <path class="fil4" d="M21753 -16200c-337,-920 -774,-1710 -1296,-2381 -452,-581 -967,-950 -1509,-1250 -15,904 195,1707 849,2287 604,536 1281,943 1956,1344z"/> <path class="fil4" d="M21261 -12773c425,-563 818,-1000 1721,-1556 573,-353 1197,-807 1827,-1120 -241,1213 -602,1927 -1167,2252 -720,415 -1576,373 -2381,424z"/> <path class="fil4" d="M21202 -13666c-432,-621 -844,-1247 -1332,-1874 -364,-468 -877,-772 -1391,-1026 -39,509 -82,1084 295,1486 662,706 1585,1021 2428,1414z"/> <path class="fil4" d="M21252 -10365c416,-558 862,-1157 1592,-1674 690,-489 1400,-679 2086,-931 -335,734 -804,1420 -1650,1921 -668,396 -1352,526 -2028,684z"/> <path class="fil4" d="M21034 -11243c-563,-463 -1174,-870 -1827,-1356 -402,-299 -939,-540 -1521,-731 130,696 396,1298 943,1580 787,405 1617,456 2405,507z"/> <path class="fil2" d="M21988 -17372c-300,1574 -759,3137 -940,4729 -136,1203 -31,2420 -47,3631 110,-4 220,-8 330,-12 -23,-1195 -183,-2394 -71,-3584 152,-1602 519,-3170 806,-4753 -57,-2 -21,-9 -78,-11z"/> <path class="fil4" d="M22365 -21767c-600,578 -862,1275 -861,2204 2,803 133,1461 410,2073 34,76 70,151 109,226 382,-647 708,-1318 707,-2346 0,-733 -48,-1456 -365,-2157z"/> </g> <g id="_611911192"> <path class="fil2" d="M3570 3762c957,-1146 1883,-2220 2635,-2553 73,730 -9,1450 -619,1929 -674,530 -1364,538 -2016,624z"/> <path class="fil2" d="M3635 3059c-305,-831 -699,-1544 -1171,-2151 -408,-524 -874,-858 -1363,-1129 -13,817 176,1542 766,2066 547,485 1158,852 1768,1214z"/> <path class="fil2" d="M3190 6155c384,-508 739,-903 1555,-1405 518,-319 1081,-730 1651,-1012 -218,1095 -545,1740 -1054,2034 -651,375 -1424,337 -2152,383z"/> <path class="fil2" d="M3137 5349c-390,-561 -763,-1127 -1203,-1694 -329,-423 -793,-697 -1257,-926 -35,460 -74,978 267,1342 598,638 1432,922 2193,1278z"/> <path class="fil2" d="M3182 8330c376,-504 779,-1045 1438,-1512 623,-442 1265,-613 1885,-841 -303,663 -726,1283 -1491,1736 -604,357 -1221,475 -1832,617z"/> <path class="fil2" d="M2985 7537c-509,-419 -1060,-786 -1650,-1225 -363,-270 -849,-488 -1374,-660 117,629 357,1172 852,1427 711,366 1460,412 2172,458z"/> <path class="fil4" d="M3847 2001c-271,1421 -686,2833 -849,4271 -123,1087 -28,2187 -43,3280 100,-3 199,-7 299,-10 -22,-1080 -166,-2163 -64,-3238 137,-1447 469,-2863 728,-4294 -52,-2 -19,-7 -71,-9z"/> <path class="fil2" d="M4188 -1970c-542,523 -779,1153 -778,1992 1,724 120,1319 370,1872 31,69 64,137 99,204 345,-585 639,-1191 639,-2119 -1,-663 -44,-1315 -330,-1949z"/> </g> </g> </svg>